<?xml version="1.0" encoding="UTF-8" standalone="no"?>
<!DOCTYPE svg PUBLIC "-//W3C//DTD SVG 1.1//EN" "http://www.w3.org/Graphics/SVG/1.1/DTD/svg11.dtd">
<svg xmlns="http://www.w3.org/2000/svg" xmlns:xlink="http://www.w3.org/1999/xlink" version="1.1" width="538pt" height="371pt" viewBox="0 0 538 371">
<g enable-background="new">
<clipPath id="cp0">
<path transform="matrix(1,0,0,-1,0,371)" d="M 0 .2000083 L 537.84 .2000083 L 537.84 371 L 0 371 Z "/>
</clipPath>
<g clip-path="url(#cp0)">
<path transform="matrix(1,0,0,-1,0,371)" d="M 0 371 L 537.84 371 L 537.84 .2000083 L 0 .2000083 Z " fill="#ffffff"/>
</g>
<path transform="matrix(1,0,0,-1,0,371)" d="M 0 371 L 537.875 371 L 537.875 .2500097 L 0 .2500097 Z " fill="#ffffff"/>
<path transform="matrix(1,0,0,-1,0,371)" d="M 1.098346 370.2917 L 536.7765 370.2917 L 536.7765 .9584349 L 1.098346 .9584349 Z " fill="#bdd7ee"/>
<path transform="matrix(.00007874016,0,0,.00007874016,1.098346,.708313)" stroke-width="38100" stroke-linecap="butt" stroke-miterlimit="8" stroke-linejoin="miter" fill="none" stroke="#5b9bd5" d="M 0 0 L 6803113 0 L 6803113 4690533 L 0 4690533 Z "/>
<text xml:space="preserve" transform="matrix(.24 0 -0 .24 464.7983 391.19999)" font-size="66.66666" font-family="Arial" font-weight="bold"><tspan y="-1545" x="0 44.27333 81.27999 118.28665 155.2933 192.29996 232.90662">Package</tspan></text>
<text xml:space="preserve" transform="matrix(.24 0 -0 .24 31.92276 454.32)" font-size="37.5" font-family="Arial" font-weight="bold"><tspan y="-1545" x="0 29.167504 43.747507 64.59001 87.49501 110.40001 120.81751 143.72252 166.62752 189.53252">GraphInput</tspan></text>
<text xml:space="preserve" transform="matrix(.24 0 -0 .24 31.92276 510.47999)" font-size="37.5" font-family="Arial" font-weight="bold"><tspan y="-1545" x="0 29.167504 43.747507 64.59001 87.49501 110.40001 120.81751 143.72252 166.62752 189.53252">GraphInput</tspan></text>
<text xml:space="preserve" transform="matrix(.24 0 -0 .24 150.5599 638.4)" font-size="37.5" font-family="Arial" font-weight="bold"><tspan y="-1545" x="0 29.167504 43.747507 64.59001 87.49501 110.40001 120.81751 143.72252 166.62752 189.53252">GraphInput</tspan></text>
<text xml:space="preserve" transform="matrix(.24 0 -0 .24 150.5599 679.68)" font-size="37.5" font-family="Arial" font-weight="bold"><tspan y="-1545" x="0 29.167504 43.747507 64.59001 87.49501 110.40001 120.81751 143.72252 166.62752 189.53252">GraphInput</tspan></text>
<text xml:space="preserve" transform="matrix(.24 0 -0 .24 378.5298 454.32)" font-size="37.5" font-family="Arial" font-weight="bold"><tspan y="-1545" x="0 29.167504 43.747507 64.59001 87.49501 110.40001 139.5675 162.4725 174.99 197.895 220.8">GraphOutput</tspan></text>
<text xml:space="preserve" transform="matrix(.24 0 -0 .24 378.5297 510)" font-size="37.5" font-family="Arial" font-weight="bold"><tspan y="-1545" x="0 29.167504 43.747507 64.59001 87.49501 110.40001 139.5675 162.4725 174.99 197.895 220.8">GraphOutput</tspan></text>
<text xml:space="preserve" transform="matrix(.24 0 -0 .24 451.5808 638.16006)" font-size="37.5" font-family="Arial" font-weight="bold"><tspan y="-1545" x="0 29.167504 43.747507 64.59001 87.49501 110.40001 139.5675 162.4725 174.99 197.895 220.8">GraphOutput</tspan></text>
<text xml:space="preserve" transform="matrix(.24 0 -0 .24 451.581 680.88)" font-size="37.5" font-family="Arial" font-weight="bold"><tspan y="-1545" x="0 29.167504 43.747507 64.59001 87.49501 110.40001 139.5675 162.4725 174.99 197.895 220.8">GraphOutput</tspan></text>
<path transform="matrix(1,0,0,-1,0,371)" d="M 97.11858 319.5211 C 97.11858 333.628 108.5545 345.0639 122.6614 345.0639 L 334.1396 345.0639 C 348.2465 345.0639 359.6824 333.628 359.6824 319.5211 L 359.6824 217.3531 C 359.6824 203.2461 348.2465 191.8102 334.1396 191.8102 L 122.6614 191.8102 C 108.5545 191.8102 97.11858 203.2461 97.11858 217.3531 Z " fill="#c5e0b4" fill-rule="evenodd"/>
<path transform="matrix(.00007874016,0,0,.00007874016,97.11858,25.936097)" stroke-width="38100" stroke-linecap="butt" stroke-miterlimit="8" stroke-linejoin="miter" fill="none" stroke="#70ad47" d="M 0 324394.4 C 0 145236.3 145236.1 0 324394 0 L 3010167 0 C 3189325 0 3334561 145236.3 3334561 324394.4 L 3334561 1621928 C 3334561 1801086 3189325 1946322 3010167 1946322 L 324394 1946322 C 145236.1 1946322 0 1801086 0 1621928 Z "/>
<text xml:space="preserve" transform="matrix(.24 0 -0 .24 111.7999 423.84)" font-size="66.66666" font-family="Arial" font-weight="bold"><tspan y="-1545" x="0 52.086664 78.10666 115.05999 155.68">Graph</tspan></text>
<path transform="matrix(1,0,0,-1,0,371)" d="M 104.8859 294.3911 L 104.8859 286.4586 L 97.27956 278.8523 L 85.0809 278.8523 L 85.0809 301.9974 L 97.27956 301.9974 Z " fill="#4472c4" fill-rule="evenodd"/>
<path transform="matrix(0,.00007874016,-.00007874016,-0,104.8859,69.002597)" stroke-width="19050" stroke-linecap="butt" stroke-miterlimit="8" stroke-linejoin="miter" fill="none" stroke="#2f528f" d="M 96600 0 L 197342 0 L 293942 96600.03 L 293942 251523 L 0 251523 L 0 96600.03 Z "/>
<path transform="matrix(1,0,0,-1,0,371)" d="M 104.8859 236.9559 L 104.8859 229.0234 L 97.27956 221.4171 L 85.0809 221.4171 L 85.0809 244.5622 L 97.27956 244.5622 Z " fill="#4472c4" fill-rule="evenodd"/>
<path transform="matrix(0,.00007874016,-.00007874016,-0,104.8859,126.437808)" stroke-width="19050" stroke-linecap="butt" stroke-miterlimit="8" stroke-linejoin="miter" fill="none" stroke="#2f528f" d="M 96600 0 L 197342 0 L 293942 96600.03 L 293942 251523 L 0 251523 L 0 96600.03 Z "/>
<path transform="matrix(1,0,0,-1,0,371)" d="M 351.8234 286.4585 L 351.8234 294.391 L 359.4297 301.9973 L 371.6283 301.9973 L 371.6283 278.8522 L 359.4297 278.8522 Z " fill="#4472c4" fill-rule="evenodd"/>
<path transform="matrix(0,-.00007874016,.00007874016,0,351.8234,92.1478)" stroke-width="19050" stroke-linecap="butt" stroke-miterlimit="8" stroke-linejoin="miter" fill="none" stroke="#2f528f" d="M 96600 0 L 197342 0 L 293942 96600.03 L 293942 251523 L 0 251523 L 0 96600.03 Z "/>
<path transform="matrix(1,0,0,-1,0,371)" d="M 351.8234 229.0377 L 351.8234 236.9701 L 359.4297 244.5764 L 371.6283 244.5764 L 371.6283 221.4314 L 359.4297 221.4314 Z " fill="#4472c4" fill-rule="evenodd"/>
<path transform="matrix(0,-.00007874016,.00007874016,0,351.8234,149.5686)" stroke-width="19050" stroke-linecap="butt" stroke-miterlimit="8" stroke-linejoin="miter" fill="none" stroke="#2f528f" d="M 96600 0 L 197342 0 L 293942 96600.03 L 293942 251523 L 0 251523 L 0 96600.03 Z "/>
<path transform="matrix(1,0,0,-1,0,371)" d="M 146.2678 294.1686 C 146.2678 297.0298 148.5872 299.3492 151.4484 299.3492 L 186.8274 299.3492 C 189.6886 299.3492 192.008 297.0298 192.008 294.1686 L 192.008 273.4469 C 192.008 270.5857 189.6886 268.2663 186.8274 268.2663 L 151.4484 268.2663 C 148.5872 268.2663 146.2678 270.5857 146.2678 273.4469 Z " fill="#ed7d31" fill-rule="evenodd"/>
<path transform="matrix(.00007874016,0,0,.00007874016,146.2678,71.65079)" stroke-width="19050" stroke-linecap="butt" stroke-miterlimit="8" stroke-linejoin="miter" fill="none" stroke="#ae5a21" d="M 0 65793.55 C 0 29456.77 29456.76 0 65793.52 0 L 515107.5 0 C 551444.3 0 580901 29456.77 580901 65793.55 L 580901 328959.5 C 580901 365296.3 551444.3 394753 515107.5 394753 L 65793.52 394753 C 29456.76 394753 0 365296.3 0 328959.5 Z "/>
<text fill="#ffffff" xml:space="preserve" transform="matrix(.24 0 -0 .24 156.6379 462)" font-size="41.66666" font-family="Arial" font-weight="bold"><tspan y="-1545" x="0 30.208333 55.708333 81.20833">Node</tspan></text>
<path transform="matrix(1,0,0,-1,0,371)" d="M 142.2196 290.3365 C 142.2196 292.5723 144.032 294.3847 146.2678 294.3847 C 148.5035 294.3847 150.316 292.5723 150.316 290.3365 C 150.316 288.1008 148.5035 286.2883 146.2678 286.2883 C 144.032 286.2883 142.2196 288.1008 142.2196 290.3365 Z " fill="#a5a5a5" fill-rule="evenodd"/>
<path transform="matrix(.00007874016,0,0,.00007874016,142.2196,76.615299)" stroke-width="12700" stroke-linecap="butt" stroke-miterlimit="8" stroke-linejoin="miter" fill="none" stroke="#787878" d="M 0 51412 C 0 23017.94 23017.94 0 51412 0 C 79806.06 0 102824 23017.94 102824 51412 C 102824 79806.06 79806.06 102824 51412 102824 C 23017.94 102824 0 79806.06 0 51412 Z "/>
<path transform="matrix(1,0,0,-1,0,371)" d="M 142.2196 276.2833 C 142.2196 278.5191 144.032 280.3315 146.2678 280.3315 C 148.5035 280.3315 150.316 278.5191 150.316 276.2833 C 150.316 274.0476 148.5035 272.2351 146.2678 272.2351 C 144.032 272.2351 142.2196 274.0476 142.2196 276.2833 Z " fill="#a5a5a5" fill-rule="evenodd"/>
<path transform="matrix(.00007874016,0,0,.00007874016,142.2196,90.66849)" stroke-width="12700" stroke-linecap="butt" stroke-miterlimit="8" stroke-linejoin="miter" fill="none" stroke="#787878" d="M 0 51412 C 0 23017.94 23017.94 0 51412 0 C 79806.06 0 102824 23017.94 102824 51412 C 102824 79806.06 79806.06 102824 51412 102824 C 23017.94 102824 0 79806.06 0 51412 Z "/>
<path transform="matrix(1,0,0,-1,0,371)" d="M 187.9598 283.8078 C 187.9598 286.0435 189.7723 287.856 192.008 287.856 C 194.2438 287.856 196.0562 286.0435 196.0562 283.8078 C 196.0562 281.572 194.2438 279.7596 192.008 279.7596 C 189.7723 279.7596 187.9598 281.572 187.9598 283.8078 Z " fill="#a5a5a5" fill-rule="evenodd"/>
<path transform="matrix(.00007874016,0,0,.00007874016,187.9598,83.14401)" stroke-width="12700" stroke-linecap="butt" stroke-miterlimit="8" stroke-linejoin="miter" fill="none" stroke="#787878" d="M 0 51412 C 0 23017.94 23017.94 0 51412 0 C 79806.06 0 102824 23017.94 102824 51412 C 102824 79806.06 79806.06 102824 51412 102824 C 23017.94 102824 0 79806.06 0 51412 Z "/>
<path transform="matrix(1,0,0,-1,0,371)" d="M 104.886 290.9248 L 108.3679 290.9238 L 111.7406 290.921 L 114.8945 290.9167 L 116.3554 290.914 L 117.7205 290.911 L 118.9762 290.9078 L 120.1089 290.9043 L 121.105 290.9007 L 121.9508 290.8969 L 122.6328 290.8929 L 123.1388 290.8889 L 123.4586 290.8846 L 123.5721 290.8803 L 123.6791 290.8761 L 123.6664 290.8765 L 123.9786 290.8724 L 123.976 290.8724 L 124.4796 290.8684 L 125.1598 290.8644 L 126.0046 290.8606 L 126.9999 290.857 L 128.1321 290.8535 L 129.3874 290.8503 L 130.7522 290.8474 L 132.2126 290.8447 L 135.3661 290.8403 L 137.2199 290.8391 L 137.2193 289.8391 L 135.3647 289.8403 L 132.2108 289.8447 L 130.75 289.8474 L 129.3849 289.8503 L 128.1291 289.8535 L 126.9963 289.857 L 126.0001 289.8606 L 125.1541 289.8645 L 124.4716 289.8684 L 123.9667 289.8724 L 123.6469 289.8766 L 123.5334 289.881 L 123.4263 289.8851 L 123.4391 289.8848 L 123.1269 289.8889 L 123.1295 289.8889 L 122.627 289.8929 L 121.9463 289.8969 L 121.1014 289.9007 L 120.1059 289.9043 L 118.9736 289.9078 L 117.7183 289.911 L 116.3535 289.914 L 114.8931 289.9167 L 111.7397 289.921 L 108.3676 289.9238 L 104.8858 289.9248 Z M 136.2211 293.3396 L 142.2196 290.3365 L 136.2181 287.3396 Z "/>
<path transform="matrix(1,0,0,-1,0,371)" d="M 104.9213 232.4909 L 106.7028 232.6174 L 108.5002 232.9927 L 110.2631 233.5959 L 111.9779 234.4092 L 113.6316 235.4156 L 115.2114 236.5981 L 116.7046 237.9407 L 118.0983 239.4273 L 119.3793 241.0423 L 120.5344 242.7699 L 121.5502 244.5948 L 122.413 246.5014 L 123.1089 248.4745 L 123.6239 250.4986 L 123.9436 252.558 L 124.0521 254.6101 L 124.1592 256.6368 L 124.154 256.5865 L 124.4661 258.5974 L 124.4566 258.5508 L 124.9602 260.53 L 124.9472 260.487 L 125.6285 262.4186 L 125.6125 262.3788 L 126.4579 264.247 L 126.4392 264.2099 L 127.435 265.9989 L 127.4138 265.9641 L 128.5463 267.6579 L 128.5223 267.6251 L 129.7779 269.2079 L 129.7509 269.1767 L 131.1158 270.6327 L 131.0854 270.6028 L 132.546 271.9161 L 132.5113 271.8877 L 134.054 273.0424 L 134.0143 273.0156 L 135.6253 273.9959 L 135.5338 273.9522 L 137.5218 274.6634 L 137.185 275.605 L 135.149 274.8766 L 133.4739 273.8573 L 131.8941 272.6748 L 130.4009 271.3322 L 129.0073 269.8456 L 127.7262 268.2306 L 126.5711 266.503 L 125.5554 264.6782 L 124.6926 262.7715 L 123.9966 260.7984 L 123.4816 258.7743 L 123.1619 256.7149 L 123.0535 254.6628 L 122.9464 252.6361 L 122.9516 252.6864 L 122.6394 250.6755 L 122.6489 250.7221 L 122.1454 248.7429 L 122.1584 248.7859 L 121.4771 246.8543 L 121.4931 246.8941 L 120.6477 245.0259 L 120.6663 245.063 L 119.6705 243.274 L 119.6918 243.3088 L 118.5593 241.615 L 118.5832 241.6478 L 117.3277 240.065 L 117.3546 240.0962 L 115.9897 238.6402 L 116.0201 238.6701 L 114.5595 237.3568 L 114.5942 237.3852 L 113.0515 236.2305 L 113.0912 236.2574 L 111.4802 235.277 L 111.5259 235.3016 L 109.8602 234.5115 L 109.9126 234.5329 L 108.2058 233.9489 L 108.2655 233.9653 L 106.5315 233.6032 L 106.5982 233.6125 L 104.8505 233.4883 Z M 137.0697 271.9847 L 142.2196 276.2833 L 135.6907 277.8241 Z "/>
<path transform="matrix(1,0,0,-1,0,371)" d="M 258.6902 308.2917 C 258.6902 311.1529 261.0097 313.4723 263.8708 313.4723 L 299.2499 313.4723 C 302.111 313.4723 304.4305 311.1529 304.4305 308.2917 L 304.4305 287.57 C 304.4305 284.7088 302.111 282.3894 299.2499 282.3894 L 263.8708 282.3894 C 261.0097 282.3894 258.6902 284.7088 258.6902 287.57 Z " fill="#ed7d31" fill-rule="evenodd"/>
<path transform="matrix(.00007874016,0,0,.00007874016,258.6902,57.52771)" stroke-width="19050" stroke-linecap="butt" stroke-miterlimit="8" stroke-linejoin="miter" fill="none" stroke="#ae5a21" d="M 0 65793.55 C 0 29456.77 29456.76 0 65793.52 0 L 515107.5 0 C 551444.3 0 580901 29456.77 580901 65793.55 L 580901 328959.5 C 580901 365296.3 551444.3 394753 515107.5 394753 L 65793.52 394753 C 29456.76 394753 0 365296.3 0 328959.5 Z "/>
<text fill="#ffffff" xml:space="preserve" transform="matrix(.24 0 -0 .24 269.0603 447.84)" font-size="41.66666" font-family="Arial" font-weight="bold"><tspan y="-1545" x="0 30.208333 55.708333 81.20833">Node</tspan></text>
<path transform="matrix(1,0,0,-1,0,371)" d="M 300.3823 304.4596 C 300.3823 306.6954 302.1947 308.5078 304.4305 308.5078 C 306.6662 308.5078 308.4787 306.6954 308.4787 304.4596 C 308.4787 302.2239 306.6662 300.4114 304.4305 300.4114 C 302.1947 300.4114 300.3823 302.2239 300.3823 304.4596 Z " fill="#a5a5a5" fill-rule="evenodd"/>
<path transform="matrix(.00007874016,0,0,.00007874016,300.3823,62.492189)" stroke-width="12700" stroke-linecap="butt" stroke-miterlimit="8" stroke-linejoin="miter" fill="none" stroke="#787878" d="M 0 51412 C 0 23017.94 23017.94 0 51412 0 C 79806.06 0 102824 23017.94 102824 51412 C 102824 79806.06 79806.06 102824 51412 102824 C 23017.94 102824 0 79806.06 0 51412 Z "/>
<path transform="matrix(1,0,0,-1,0,371)" d="M 300.3823 290.4064 C 300.3823 292.6421 302.1947 294.4546 304.4305 294.4546 C 306.6662 294.4546 308.4787 292.6421 308.4787 290.4064 C 308.4787 288.1706 306.6662 286.3582 304.4305 286.3582 C 302.1947 286.3582 300.3823 288.1706 300.3823 290.4064 Z " fill="#a5a5a5" fill-rule="evenodd"/>
<path transform="matrix(.00007874016,0,0,.00007874016,300.3823,76.54541)" stroke-width="12700" stroke-linecap="butt" stroke-miterlimit="8" stroke-linejoin="miter" fill="none" stroke="#787878" d="M 0 51412 C 0 23017.94 23017.94 0 51412 0 C 79806.06 0 102824 23017.94 102824 51412 C 102824 79806.06 79806.06 102824 51412 102824 C 23017.94 102824 0 79806.06 0 51412 Z "/>
<path transform="matrix(1,0,0,-1,0,371)" d="M 254.642 298.3042 C 254.642 300.5399 256.4545 302.3524 258.6902 302.3524 C 260.926 302.3524 262.7384 300.5399 262.7384 298.3042 C 262.7384 296.0684 260.926 294.256 258.6902 294.256 C 256.4545 294.256 254.642 296.0684 254.642 298.3042 Z " fill="#a5a5a5" fill-rule="evenodd"/>
<path transform="matrix(.00007874016,0,0,.00007874016,254.642,68.64761)" stroke-width="12700" stroke-linecap="butt" stroke-miterlimit="8" stroke-linejoin="miter" fill="none" stroke="#787878" d="M 0 51412 C 0 23017.94 23017.94 0 51412 0 C 79806.06 0 102824 23017.94 102824 51412 C 102824 79806.06 79806.06 102824 51412 102824 C 23017.94 102824 0 79806.06 0 51412 Z "/>
<path transform="matrix(1,0,0,-1,0,371)" d="M 196.0711 283.308 L 201.5492 283.4712 L 206.8661 283.9335 L 209.4119 284.264 L 211.8477 284.6531 L 214.1558 285.0959 L 216.3156 285.5875 L 218.3064 286.123 L 220.1082 286.698 L 221.7015 287.3088 L 223.0684 287.9533 L 224.1927 288.6335 L 225.0594 289.3603 L 225.6429 290.1623 L 225.8345 290.9358 L 226.0025 291.6145 L 225.9215 291.4405 L 226.4114 292.1138 L 226.3284 292.0249 L 227.1186 292.6876 L 227.0561 292.6429 L 228.1253 293.2896 L 228.0797 293.2652 L 229.4064 293.8908 L 229.3721 293.8761 L 230.9347 294.4751 L 230.9077 294.4657 L 232.6849 295.0328 L 232.6628 295.0263 L 234.633 295.5563 L 234.6141 295.5516 L 236.756 296.0391 L 236.7393 296.0356 L 239.0314 296.4753 L 239.016 296.4726 L 241.4368 296.8593 L 241.4223 296.8572 L 243.9504 297.1855 L 243.9249 297.1828 L 249.6839 297.6314 L 249.6062 298.6284 L 243.8344 298.1788 L 241.2863 297.8479 L 238.8506 297.4589 L 236.5425 297.0161 L 234.3827 296.5245 L 232.3919 295.989 L 230.5901 295.414 L 228.9967 294.8032 L 227.6298 294.1587 L 226.5056 293.4785 L 225.6388 292.7517 L 225.0554 291.9498 L 224.8638 291.1762 L 224.6957 290.4976 L 224.7768 290.6715 L 224.2869 289.9982 L 224.3699 290.0872 L 223.5797 289.4245 L 223.6421 289.4691 L 222.573 288.8224 L 222.6185 288.8468 L 221.2919 288.2212 L 221.3262 288.2359 L 219.7636 287.6369 L 219.7905 287.6463 L 218.0133 287.0792 L 218.0355 287.0857 L 216.0652 286.5557 L 216.0841 286.5604 L 213.9422 286.0729 L 213.959 286.0764 L 211.6669 285.6366 L 211.6823 285.6393 L 209.2614 285.2527 L 209.2759 285.2548 L 206.7478 284.9265 L 206.7689 284.9288 L 201.4767 284.4687 L 201.5051 284.4704 L 196.0413 284.3076 Z M 248.7502 295.0969 L 254.642 298.3042 L 248.5411 301.0933 Z "/>
<path transform="matrix(1,0,0,-1,0,371)" d="M 308.4787 289.9063 L 312.5211 289.9065 L 316.4366 289.9071 L 318.307 289.9075 L 320.0981 289.908 L 321.7939 289.9086 L 323.3786 289.9092 L 324.8363 289.9099 L 326.1512 289.9106 L 327.3074 289.9114 L 328.289 289.9121 L 329.0801 289.913 L 329.665 289.9138 L 330.029 289.9147 L 330.1545 289.9155 L 330.2789 289.9164 L 330.2765 289.9164 L 330.639 289.9172 L 331.2232 289.9181 L 332.014 289.9189 L 332.9954 289.9197 L 334.1514 289.9205 L 335.4662 289.9212 L 336.9239 289.9219 L 338.5085 289.9225 L 340.2043 289.923 L 341.9953 289.9235 L 343.8657 289.9239 L 346.8234 289.9243 L 346.8233 290.9243 L 343.8655 290.9239 L 341.995 290.9235 L 340.204 290.923 L 338.5081 290.9225 L 336.9234 290.9219 L 335.4657 290.9212 L 334.1508 290.9205 L 332.9946 290.9197 L 332.013 290.9189 L 331.2217 290.9181 L 330.6366 290.9172 L 330.273 290.9164 L 330.1476 290.9155 L 330.0232 290.9146 L 330.0255 290.9147 L 329.6635 290.9138 L 329.0791 290.913 L 328.2881 290.9121 L 327.3067 290.9114 L 326.1507 290.9106 L 324.8359 290.9099 L 323.3782 290.9092 L 321.7936 290.9086 L 320.0978 290.908 L 318.3068 290.9075 L 316.4364 290.9071 L 312.521 290.9065 L 308.4786 290.9063 Z M 345.8236 287.4242 L 351.8234 290.4247 L 345.8231 293.4242 Z "/>
<path transform="matrix(1,0,0,-1,0,371)" d="M 196.0938 284.3064 L 197.4574 284.2035 L 198.8417 283.8967 L 200.1969 283.4045 L 201.5128 282.7419 L 202.7799 281.9233 L 203.9889 280.9626 L 205.1305 279.8729 L 206.1952 278.6673 L 207.1733 277.3583 L 208.0549 275.9585 L 208.8299 274.4804 L 209.4882 272.9362 L 210.019 271.3384 L 210.4119 269.6994 L 210.6558 268.0315 L 210.7384 266.3729 L 210.8197 264.7382 L 210.8151 264.7857 L 211.0523 263.1638 L 211.0438 263.208 L 211.4264 261.6116 L 211.4146 261.6527 L 211.9323 260.0947 L 211.9178 260.1331 L 212.5601 258.6263 L 212.5429 258.6624 L 213.2995 257.2195 L 213.2798 257.2538 L 214.1402 255.8876 L 214.1177 255.9205 L 215.0716 254.6438 L 215.0459 254.6755 L 216.0829 253.5011 L 216.0534 253.5318 L 217.1631 252.4726 L 217.129 252.5024 L 218.3011 251.571 L 218.1989 251.6338 L 219.8684 250.8659 L 219.4505 249.9574 L 217.7262 250.7505 L 216.4891 251.7336 L 215.3475 252.8232 L 214.2828 254.0289 L 213.3047 255.3378 L 212.4231 256.7376 L 211.648 258.2158 L 210.9898 259.7599 L 210.4589 261.3577 L 210.0661 262.9968 L 209.8222 264.6646 L 209.7396 266.3232 L 209.6582 267.9579 L 209.6629 267.9104 L 209.4257 269.5324 L 209.4342 269.4882 L 209.0516 271.0845 L 209.0633 271.0434 L 208.5457 272.6014 L 208.5602 272.563 L 207.9179 274.0698 L 207.935 274.0337 L 207.1784 275.4766 L 207.1982 275.4423 L 206.3377 276.8085 L 206.3603 276.7757 L 205.4063 278.0523 L 205.4321 278.0207 L 204.395 279.195 L 204.4246 279.1643 L 203.3148 280.2236 L 203.349 280.1938 L 202.1769 281.1252 L 202.2167 281.0966 L 200.9926 281.8874 L 201.0391 281.8608 L 199.7735 282.498 L 199.8277 282.4747 L 198.5309 282.9457 L 198.5935 282.9275 L 197.2759 283.2195 L 197.3465 283.209 L 196.0186 283.3092 Z M 219.621 253.5737 L 224.4217 248.8884 L 217.793 247.859 Z "/>
<path transform="matrix(1,0,0,-1,0,371)" d="M 104.8859 233.4896 L 116.034 233.4887 L 121.4987 233.4877 L 126.832 233.4863 L 131.9903 233.4845 L 136.9296 233.4825 L 141.6063 233.4801 L 145.9766 233.4775 L 148.0332 233.4761 L 149.9967 233.4747 L 151.8618 233.4732 L 153.6228 233.4717 L 155.2745 233.4701 L 156.8112 233.4685 L 158.2276 233.4668 L 159.5181 233.4651 L 160.6773 233.4634 L 161.6998 233.4617 L 162.58 233.4599 L 163.3125 233.4581 L 163.892 233.4564 L 164.313 233.4546 L 164.5741 233.4527 L 164.6642 233.4508 L 164.7509 233.449 L 164.7439 233.4491 L 165.0002 233.4473 L 165.4193 233.4455 L 165.9978 233.4437 L 166.7298 233.4419 L 167.6096 233.4402 L 168.6318 233.4384 L 169.7908 233.4367 L 171.0812 233.435 L 172.4974 233.4334 L 174.0341 233.4318 L 175.6856 233.4302 L 177.4466 233.4287 L 179.3116 233.4272 L 181.2751 233.4257 L 183.3316 233.4243 L 187.7018 233.4217 L 192.3784 233.4194 L 197.3177 233.4173 L 202.4758 233.4156 L 207.809 233.4142 L 213.2736 233.4131 L 219.4217 233.4127 L 219.4216 232.4127 L 213.2734 232.4131 L 207.8088 232.4142 L 202.4755 232.4156 L 197.3172 232.4173 L 192.3779 232.4194 L 187.7012 232.4217 L 183.3309 232.4243 L 181.2743 232.4257 L 179.3108 232.4272 L 177.4458 232.4287 L 175.6847 232.4302 L 174.033 232.4318 L 172.4963 232.4334 L 171.0799 232.435 L 169.7893 232.4367 L 168.6301 232.4384 L 167.6076 232.4402 L 166.7273 232.4419 L 165.9947 232.4437 L 165.415 232.4455 L 164.9931 232.4473 L 164.7334 232.4492 L 164.6433 232.4511 L 164.5567 232.4529 L 164.5636 232.4528 L 164.3087 232.4546 L 163.8889 232.4564 L 163.3101 232.4581 L 162.578 232.4599 L 161.6981 232.4617 L 160.6759 232.4634 L 159.5168 232.4651 L 158.2264 232.4668 L 156.8102 232.4685 L 155.2735 232.4701 L 153.622 232.4717 L 151.861 232.4732 L 149.996 232.4747 L 148.0325 232.4761 L 145.976 232.4775 L 141.6058 232.4801 L 136.9292 232.4825 L 131.9899 232.4845 L 126.8318 232.4863 L 121.4985 232.4877 L 116.034 232.4887 L 104.8859 232.4896 Z M 218.4219 235.9127 L 224.4216 232.9123 L 218.4214 229.9127 Z "/>
<path transform="matrix(1,0,0,-1,0,371)" d="M 298.8635 249.6013 L 301.3522 249.5549 L 303.8344 249.4191 L 308.6449 248.9054 L 310.9522 248.5375 L 313.1589 248.1046 L 315.2505 247.6118 L 317.2081 247.0645 L 319.0135 246.4681 L 320.6484 245.8272 L 322.0955 245.146 L 323.338 244.4264 L 324.36 243.667 L 325.1439 242.8597 L 325.6602 241.9881 L 325.8289 241.1514 L 325.9809 240.3978 L 325.9209 240.5538 L 326.3638 239.8062 L 326.2924 239.8996 L 327.0069 239.1637 L 326.9463 239.2168 L 327.913 238.4985 L 327.8654 238.5299 L 329.0648 237.8352 L 329.0272 237.8549 L 330.44 237.1898 L 330.4095 237.2029 L 332.0163 236.5731 L 331.9907 236.5824 L 333.7721 235.9939 L 333.7498 236.0006 L 335.6864 235.4593 L 335.6664 235.4644 L 337.7388 234.9761 L 337.7204 234.9801 L 339.9091 234.5507 L 339.8916 234.5538 L 342.1773 234.1893 L 342.1456 234.1933 L 346.8764 233.746 L 346.7823 232.7504 L 342.0356 233.1993 L 339.7253 233.5677 L 337.5186 234.0006 L 335.4271 234.4934 L 333.4694 235.0407 L 331.6641 235.6371 L 330.0291 236.278 L 328.582 236.9592 L 327.3395 237.6788 L 326.3175 238.4382 L 325.5336 239.2455 L 325.0173 240.1171 L 324.8486 240.9538 L 324.6967 241.7074 L 324.7566 241.5514 L 324.3137 242.299 L 324.3852 242.2056 L 323.6707 242.9415 L 323.7312 242.8884 L 322.7646 243.6066 L 322.8122 243.5753 L 321.6127 244.27 L 321.6503 244.2503 L 320.2375 244.9154 L 320.268 244.9023 L 318.6612 245.5321 L 318.6869 245.5228 L 316.9055 246.1113 L 316.9277 246.1046 L 314.9912 246.6459 L 315.0111 246.6408 L 312.9388 247.1291 L 312.9572 247.1251 L 310.7685 247.5545 L 310.786 247.5514 L 308.5002 247.9159 L 308.5259 247.9125 L 303.7411 248.4234 L 303.7668 248.4213 L 301.3065 248.5559 L 301.3246 248.5552 L 298.8449 248.6014 Z M 345.9771 236.2935 L 351.8234 233.0039 L 345.6839 230.3006 Z "/>
<path transform="matrix(.00007874016,0,0,-.00007874016,261.6972,193.8717)" stroke-width="38100" stroke-linecap="butt" stroke-miterlimit="8" stroke-linejoin="miter" fill="none" stroke="#70ad47" d="M 0 0 L 1 578232 "/>
<text xml:space="preserve" transform="matrix(.24 0 -0 .24 124.4972 444)" font-size="33.33333" font-family="Arial" font-weight="bold"><tspan y="-1545" x="0 9.376666 29.686663 49.99666 70.306659">Input</tspan></text>
<text xml:space="preserve" transform="matrix(.24 0 -0 .24 132.5892 481.2)" font-size="33.33333" font-family="Arial" font-weight="bold"><tspan y="-1545" x="0 9.376666 29.686663 49.99666 70.306659">Input</tspan></text>
<text xml:space="preserve" transform="matrix(.24 0 -0 .24 214.8098 479.52)" font-size="33.33333" font-family="Arial" font-weight="bold"><tspan y="-1545" x="0 9.376666 29.686663 49.99666 70.306659">Input</tspan></text>
<text xml:space="preserve" transform="matrix(.24 0 -0 .24 205.6176 520.8)" font-size="33.33333" font-family="Arial" font-weight="bold"><tspan y="-1545" x="0 9.376666 29.686663 49.99666 70.306659">Input</tspan></text>
<text xml:space="preserve" transform="matrix(.24 0 -0 .24 237.5482 437.28)" font-size="33.33333" font-family="Arial" font-weight="bold"><tspan y="-1545" x="0 9.376666 29.686663 49.99666 70.306659">Input</tspan></text>
<text xml:space="preserve" transform="matrix(.24 0 -0 .24 195.0253 451.19999)" font-size="33.33333" font-family="Arial" font-weight="bold"><tspan y="-1545" x="0 26.043332 46.35333 57.29666 77.60666 97.91666">Output</tspan></text>
<text xml:space="preserve" transform="matrix(.24 0 -0 .24 301.19 511.68)" font-size="33.33333" font-family="Arial" font-weight="bold"><tspan y="-1545" x="0 26.043332 46.35333 57.29666 77.60666 97.91666">Output</tspan></text>
<text xml:space="preserve" transform="matrix(.24 0 -0 .24 311.4269 438.96)" font-size="33.33333" font-family="Arial" font-weight="bold"><tspan y="-1545" x="0 26.043332 46.35333 57.29666 77.60666 97.91666">Output</tspan></text>
<text xml:space="preserve" transform="matrix(.24 0 -0 .24 306.8031 463.68)" font-size="33.33333" font-family="Arial" font-weight="bold"><tspan y="-1545" x="0 26.043332 46.35333 57.29666 77.60666 97.91666">Output</tspan></text>
<path transform="matrix(1,0,0,-1,0,371)" d="M 228.4699 253.8668 C 228.4699 257.3141 231.2645 260.1087 234.7117 260.1087 L 288.6827 260.1087 C 292.13 260.1087 294.9246 257.3141 294.9246 253.8668 L 294.9246 228.9003 C 294.9246 225.453 292.13 222.6584 288.6827 222.6584 L 234.7117 222.6584 C 231.2645 222.6584 228.4699 225.453 228.4699 228.9003 Z " fill="#70ad47" fill-rule="evenodd"/>
<path transform="matrix(.00007874016,0,0,.00007874016,228.4699,110.8913)" stroke-width="19050" stroke-linecap="butt" stroke-miterlimit="8" stroke-linejoin="miter" fill="none" stroke="#507e32" d="M 0 79271.2 C 0 35490.93 35490.91 0 79271.16 0 L 764702.8 0 C 808483.1 0 843974 35490.93 843974 79271.2 L 843974 396346.8 C 843974 440127.1 808483.1 475618 764702.8 475618 L 79271.16 475618 C 35490.91 475618 0 440127.1 0 396346.8 Z "/>
<text fill="#ffffff" xml:space="preserve" transform="matrix(.24 0 -0 .24 238.3847 504.47999)" font-size="41.66666" font-family="Arial" font-weight="bold"><tspan y="-1545" x="0 27.604166 53.124998 78.64583 104.16666 120.312488 143.20833 168.72916">Subgraph</tspan></text>
<path transform="matrix(1,0,0,-1,0,371)" d="M 224.4217 248.8884 C 224.4217 251.1241 226.2342 252.9365 228.4699 252.9365 C 230.7057 252.9365 232.5181 251.1241 232.5181 248.8884 C 232.5181 246.6526 230.7057 244.8402 228.4699 244.8402 C 226.2342 244.8402 224.4217 246.6526 224.4217 248.8884 Z " fill="#a5a5a5" fill-rule="evenodd"/>
<path transform="matrix(.00007874016,0,0,.00007874016,224.4217,118.06351)" stroke-width="12700" stroke-linecap="butt" stroke-miterlimit="8" stroke-linejoin="miter" fill="none" stroke="#787878" d="M 0 51412 C 0 23017.94 23017.94 0 51412 0 C 79806.06 0 102824 23017.94 102824 51412 C 102824 79806.06 79806.06 102824 51412 102824 C 23017.94 102824 0 79806.06 0 51412 Z "/>
<path transform="matrix(1,0,0,-1,0,371)" d="M 224.4217 232.9123 C 224.4217 235.148 226.2342 236.9605 228.4699 236.9605 C 230.7057 236.9605 232.5181 235.148 232.5181 232.9123 C 232.5181 230.6765 230.7057 228.8641 228.4699 228.8641 C 226.2342 228.8641 224.4217 230.6765 224.4217 232.9123 Z " fill="#a5a5a5" fill-rule="evenodd"/>
<path transform="matrix(.00007874016,0,0,.00007874016,224.4217,134.0395)" stroke-width="12700" stroke-linecap="butt" stroke-miterlimit="8" stroke-linejoin="miter" fill="none" stroke="#787878" d="M 0 51412 C 0 23017.94 23017.94 0 51412 0 C 79806.06 0 102824 23017.94 102824 51412 C 102824 79806.06 79806.06 102824 51412 102824 C 23017.94 102824 0 79806.06 0 51412 Z "/>
<path transform="matrix(1,0,0,-1,0,371)" d="M 290.7578 249.1013 C 290.7578 251.337 292.5702 253.1494 294.806 253.1494 C 297.0417 253.1494 298.8542 251.337 298.8542 249.1013 C 298.8542 246.8655 297.0417 245.0531 294.806 245.0531 C 292.5702 245.0531 290.7578 246.8655 290.7578 249.1013 Z " fill="#a5a5a5" fill-rule="evenodd"/>
<path transform="matrix(.00007874016,0,0,.00007874016,290.7578,117.8506)" stroke-width="12700" stroke-linecap="butt" stroke-miterlimit="8" stroke-linejoin="miter" fill="none" stroke="#787878" d="M 0 51412 C 0 23017.94 23017.94 0 51412 0 C 79806.06 0 102824 23017.94 102824 51412 C 102824 79806.06 79806.06 102824 51412 102824 C 23017.94 102824 0 79806.06 0 51412 Z "/>
<path transform="matrix(1,0,0,-1,0,371)" d="M 290.7578 233.1253 C 290.7578 235.361 292.5702 237.1735 294.806 237.1735 C 297.0417 237.1735 298.8542 235.361 298.8542 233.1253 C 298.8542 230.8895 297.0417 229.0771 294.806 229.0771 C 292.5702 229.0771 290.7578 230.8895 290.7578 233.1253 Z " fill="#a5a5a5" fill-rule="evenodd"/>
<path transform="matrix(.00007874016,0,0,.00007874016,290.7578,133.8265)" stroke-width="12700" stroke-linecap="butt" stroke-miterlimit="8" stroke-linejoin="miter" fill="none" stroke="#787878" d="M 0 51412 C 0 23017.94 23017.94 0 51412 0 C 79806.06 0 102824 23017.94 102824 51412 C 102824 79806.06 79806.06 102824 51412 102824 C 23017.94 102824 0 79806.06 0 51412 Z "/>
<text xml:space="preserve" transform="matrix(.24 0 -0 .24 299.5049 488.16)" font-size="33.33333" font-family="Arial" font-weight="bold"><tspan y="-1545" x="0 26.043332 46.35333 57.29666 77.60666 97.91666">Output</tspan></text>
<path transform="matrix(1,0,0,-1,0,371)" d="M 215.7422 142.0189 C 215.7422 156.1832 225.995 167.6655 238.6424 167.6655 L 238.6424 167.6653 C 251.2898 167.6653 261.5425 179.1476 261.5425 193.3118 C 261.5425 179.1476 271.7953 167.6653 284.4427 167.6653 L 409.8335 167.6653 C 422.4809 167.6653 432.7336 156.1829 432.7336 142.0187 Z " fill="#70ad47" fill-rule="evenodd"/>
<path transform="matrix(0,.00007874016,-.00007874016,-0,432.7336,177.6882)" stroke-width="38100" stroke-linecap="butt" stroke-miterlimit="8" stroke-linejoin="miter" fill="none" stroke="#70ad47" d="M 651420 2755791 C 471534.5 2755791 325708.5 2625581 325708.5 2464959 L 325711.5 2464959 C 325711.5 2304337 179885.5 2174127 0 2174127 C 179885.5 2174127 325711.5 2043917 325711.5 1883296 L 325711.5 290831.8 C 325711.5 130209.8 471537.5 0 651423 0 "/>
<path transform="matrix(1,0,0,-1,0,371)" d="M 215.7424 144.189 C 215.7424 157.1023 226.2107 167.5706 239.1241 167.5706 L 409.3522 167.5706 C 422.2655 167.5706 432.7338 157.1023 432.7338 144.189 L 432.7338 50.6648 C 432.7338 37.75147 422.2655 27.28315 409.3522 27.28315 L 239.1241 27.28315 C 226.2107 27.28315 215.7424 37.75147 215.7424 50.6648 Z " fill="#c5e0b4" fill-rule="evenodd"/>
<path transform="matrix(.00007874016,0,0,.00007874016,215.7424,203.4294)" stroke-width="38100" stroke-linecap="butt" stroke-miterlimit="8" stroke-linejoin="miter" fill="none" stroke="#70ad47" d="M 0 296946.9 C 0 132947.6 132947.6 0 296946.7 0 L 2458844 0 C 2622843 0 2755791 132947.6 2755791 296946.9 L 2755791 1484704 C 2755791 1648703 2622843 1781651 2458844 1781651 L 296946.7 1781651 C 132947.6 1781651 0 1648703 0 1484704 Z "/>
<text xml:space="preserve" transform="matrix(.24 0 -0 .24 229.7907 602.64)" font-size="75" font-family="Arial" font-weight="bold"><tspan y="-1545" x="0 58.335008 87.49501 129.18003 174.99002">Graph</tspan></text>
<path transform="matrix(1,0,0,-1,0,371)" d="M 223.5231 110.3338 L 223.5231 102.4014 L 215.9168 94.79509 L 203.7182 94.79509 L 203.7182 117.9401 L 215.9168 117.9401 Z " fill="#4472c4" fill-rule="evenodd"/>
<path transform="matrix(0,.00007874016,-.00007874016,-0,223.5231,253.0599)" stroke-width="19050" stroke-linecap="butt" stroke-miterlimit="8" stroke-linejoin="miter" fill="none" stroke="#2f528f" d="M 96600 0 L 197342 0 L 293942 96600.03 L 293942 251523 L 0 251523 L 0 96600.03 Z "/>
<path transform="matrix(1,0,0,-1,0,371)" d="M 223.5231 67.77649 L 223.5231 59.84405 L 215.9168 52.23775 L 203.7182 52.23775 L 203.7182 75.38279 L 215.9168 75.38279 Z " fill="#4472c4" fill-rule="evenodd"/>
<path transform="matrix(0,.00007874016,-.00007874016,-0,223.5231,295.61723)" stroke-width="19050" stroke-linecap="butt" stroke-miterlimit="8" stroke-linejoin="miter" fill="none" stroke="#2f528f" d="M 96600 0 L 197342 0 L 293942 96600.03 L 293942 251523 L 0 251523 L 0 96600.03 Z "/>
<path transform="matrix(1,0,0,-1,0,371)" d="M 425.5609 102.8583 L 425.5609 110.7908 L 433.1672 118.3971 L 445.3658 118.3971 L 445.3658 95.25202 L 433.1672 95.25202 Z " fill="#4472c4" fill-rule="evenodd"/>
<path transform="matrix(0,-.00007874016,.00007874016,0,425.5609,275.748)" stroke-width="19050" stroke-linecap="butt" stroke-miterlimit="8" stroke-linejoin="miter" fill="none" stroke="#2f528f" d="M 96600 0 L 197342 0 L 293942 96600.03 L 293942 251523 L 0 251523 L 0 96600.03 Z "/>
<path transform="matrix(1,0,0,-1,0,371)" d="M 343.9829 116.8808 C 343.9829 119.7419 346.3023 122.0614 349.1635 122.0614 L 384.5425 122.0614 C 387.4037 122.0614 389.7231 119.7419 389.7231 116.8808 L 389.7231 96.15901 C 389.7231 93.29785 387.4037 90.97841 384.5425 90.97841 L 349.1635 90.97841 C 346.3023 90.97841 343.9829 93.29785 343.9829 96.15901 Z " fill="#ed7d31" fill-rule="evenodd"/>
<path transform="matrix(.00007874016,0,0,.00007874016,343.9829,248.9386)" stroke-width="19050" stroke-linecap="butt" stroke-miterlimit="8" stroke-linejoin="miter" fill="none" stroke="#ae5a21" d="M 0 65793.6 C 0 29456.8 29456.76 0 65793.52 0 L 515107.5 0 C 551444.3 0 580901 29456.8 580901 65793.6 L 580901 328959.7 C 580901 365296.6 551444.3 394753.3 515107.5 394753.3 L 65793.52 394753.3 C 29456.76 394753.3 0 365296.6 0 328959.7 Z "/>
<text fill="#ffffff" xml:space="preserve" transform="matrix(.24 0 -0 .24 354.353 639.36)" font-size="41.66666" font-family="Arial" font-weight="bold"><tspan y="-1545" x="0 30.208333 55.708333 81.20833">Node</tspan></text>
<path transform="matrix(1,0,0,-1,0,371)" d="M 339.9347 113.0487 C 339.9347 115.2844 341.7471 117.0969 343.9829 117.0969 C 346.2187 117.0969 348.0311 115.2844 348.0311 113.0487 C 348.0311 110.8129 346.2187 109.0005 343.9829 109.0005 C 341.7471 109.0005 339.9347 110.8129 339.9347 113.0487 Z " fill="#a5a5a5" fill-rule="evenodd"/>
<path transform="matrix(.00007874016,0,0,.00007874016,339.9347,253.9031)" stroke-width="12700" stroke-linecap="butt" stroke-miterlimit="8" stroke-linejoin="miter" fill="none" stroke="#787878" d="M 0 51412 C 0 23017.94 23017.94 0 51412 0 C 79806.06 0 102824 23017.94 102824 51412 C 102824 79806.06 79806.06 102824 51412 102824 C 23017.94 102824 0 79806.06 0 51412 Z "/>
<path transform="matrix(1,0,0,-1,0,371)" d="M 339.9347 98.99536 C 339.9347 101.2311 341.7471 103.0436 343.9829 103.0436 C 346.2187 103.0436 348.0311 101.2311 348.0311 98.99536 C 348.0311 96.75961 346.2187 94.94717 343.9829 94.94717 C 341.7471 94.94717 339.9347 96.75961 339.9347 98.99536 Z " fill="#a5a5a5" fill-rule="evenodd"/>
<path transform="matrix(.00007874016,0,0,.00007874016,339.9347,267.9564)" stroke-width="12700" stroke-linecap="butt" stroke-miterlimit="8" stroke-linejoin="miter" fill="none" stroke="#787878" d="M 0 51412 C 0 23017.94 23017.94 0 51412 0 C 79806.06 0 102824 23017.94 102824 51412 C 102824 79806.06 79806.06 102824 51412 102824 C 23017.94 102824 0 79806.06 0 51412 Z "/>
<path transform="matrix(1,0,0,-1,0,371)" d="M 385.675 106.5199 C 385.675 108.7556 387.4874 110.568 389.7231 110.568 C 391.9589 110.568 393.7713 108.7556 393.7713 106.5199 C 393.7713 104.2841 391.9589 102.4717 389.7231 102.4717 C 387.4874 102.4717 385.675 104.2841 385.675 106.5199 Z " fill="#a5a5a5" fill-rule="evenodd"/>
<path transform="matrix(.00007874016,0,0,.00007874016,385.675,260.432)" stroke-width="12700" stroke-linecap="butt" stroke-miterlimit="8" stroke-linejoin="miter" fill="none" stroke="#787878" d="M 0 51412 C 0 23017.94 23017.94 0 51412 0 C 79806.06 0 102824 23017.94 102824 51412 C 102824 79806.06 79806.06 102824 51412 102824 C 23017.94 102824 0 79806.06 0 51412 Z "/>
<path transform="matrix(1,0,0,-1,0,371)" d="M 256.5506 116.7464 C 256.5506 119.6076 258.87 121.927 261.7312 121.927 L 297.1103 121.927 C 299.9714 121.927 302.2909 119.6076 302.2909 116.7464 L 302.2909 96.02469 C 302.2909 93.16352 299.9714 90.84409 297.1103 90.84409 L 261.7312 90.84409 C 258.87 90.84409 256.5506 93.16352 256.5506 96.02469 Z " fill="#ed7d31" fill-rule="evenodd"/>
<path transform="matrix(.00007874016,0,0,.00007874016,256.5506,249.073)" stroke-width="19050" stroke-linecap="butt" stroke-miterlimit="8" stroke-linejoin="miter" fill="none" stroke="#ae5a21" d="M 0 65793.6 C 0 29456.8 29456.76 0 65793.52 0 L 515107.5 0 C 551444.3 0 580901 29456.8 580901 65793.6 L 580901 328959.7 C 580901 365296.6 551444.3 394753.3 515107.5 394753.3 L 65793.52 394753.3 C 29456.76 394753.3 0 365296.6 0 328959.7 Z "/>
<text fill="#ffffff" xml:space="preserve" transform="matrix(.24 0 -0 .24 266.9207 639.36)" font-size="41.66666" font-family="Arial" font-weight="bold"><tspan y="-1545" x="0 30.208333 55.708333 81.20833">Node</tspan></text>
<path transform="matrix(1,0,0,-1,0,371)" d="M 298.2427 112.9143 C 298.2427 115.1501 300.0551 116.9625 302.2909 116.9625 C 304.5266 116.9625 306.3391 115.1501 306.3391 112.9143 C 306.3391 110.6786 304.5266 108.8661 302.2909 108.8661 C 300.0551 108.8661 298.2427 110.6786 298.2427 112.9143 Z " fill="#a5a5a5" fill-rule="evenodd"/>
<path transform="matrix(.00007874016,0,0,.00007874016,298.2427,254.0375)" stroke-width="12700" stroke-linecap="butt" stroke-miterlimit="8" stroke-linejoin="miter" fill="none" stroke="#787878" d="M 0 51412 C 0 23017.94 23017.94 0 51412 0 C 79806.06 0 102824 23017.94 102824 51412 C 102824 79806.06 79806.06 102824 51412 102824 C 23017.94 102824 0 79806.06 0 51412 Z "/>
<path transform="matrix(1,0,0,-1,0,371)" d="M 298.2427 98.86104 C 298.2427 101.0968 300.0551 102.9092 302.2909 102.9092 C 304.5266 102.9092 306.3391 101.0968 306.3391 98.86104 C 306.3391 96.62528 304.5266 94.81285 302.2909 94.81285 C 300.0551 94.81285 298.2427 96.62528 298.2427 98.86104 Z " fill="#a5a5a5" fill-rule="evenodd"/>
<path transform="matrix(.00007874016,0,0,.00007874016,298.2427,268.0908)" stroke-width="12700" stroke-linecap="butt" stroke-miterlimit="8" stroke-linejoin="miter" fill="none" stroke="#787878" d="M 0 51412 C 0 23017.94 23017.94 0 51412 0 C 79806.06 0 102824 23017.94 102824 51412 C 102824 79806.06 79806.06 102824 51412 102824 C 23017.94 102824 0 79806.06 0 51412 Z "/>
<path transform="matrix(1,0,0,-1,0,371)" d="M 252.5024 106.7589 C 252.5024 108.9947 254.3149 110.8071 256.5506 110.8071 C 258.7864 110.8071 260.5988 108.9947 260.5988 106.7589 C 260.5988 104.5232 258.7864 102.7107 256.5506 102.7107 C 254.3149 102.7107 252.5024 104.5232 252.5024 106.7589 Z " fill="#a5a5a5" fill-rule="evenodd"/>
<path transform="matrix(.00007874016,0,0,.00007874016,252.5024,260.1929)" stroke-width="12700" stroke-linecap="butt" stroke-miterlimit="8" stroke-linejoin="miter" fill="none" stroke="#787878" d="M 0 51412 C 0 23017.94 23017.94 0 51412 0 C 79806.06 0 102824 23017.94 102824 51412 C 102824 79806.06 79806.06 102824 51412 102824 C 23017.94 102824 0 79806.06 0 51412 Z "/>
<path transform="matrix(1,0,0,-1,0,371)" d="M 223.5299 105.8676 L 247.5096 106.1914 L 247.4961 107.1914 L 223.5164 106.8675 Z M 246.5434 103.6782 L 252.5024 106.7589 L 246.4624 109.6776 Z "/>
<path transform="matrix(1,0,0,-1,0,371)" d="M 306.3393 112.4143 L 309.4725 112.4158 L 312.5077 112.4201 L 315.3461 112.4267 L 316.6609 112.4308 L 317.8894 112.4353 L 319.0196 112.4402 L 320.0391 112.4455 L 320.9357 112.451 L 321.6972 112.4568 L 322.3123 112.4629 L 322.7686 112.469 L 323.0624 112.4756 L 323.1695 112.4826 L 323.2658 112.4888 L 323.2444 112.4879 L 323.5253 112.4941 L 323.521 112.4941 L 323.9741 112.5002 L 323.9723 112.5002 L 324.5854 112.5062 L 325.345 112.5119 L 326.2404 112.5175 L 327.259 112.5227 L 328.3884 112.5276 L 329.6163 112.5321 L 330.9304 112.5362 L 333.7679 112.5428 L 334.9352 112.544 L 334.9342 113.544 L 333.7656 113.5428 L 330.9273 113.5362 L 329.6127 113.5321 L 328.3841 113.5276 L 327.2538 113.5227 L 326.2342 113.5175 L 325.3374 113.5119 L 324.5756 113.5061 L 323.9616 113.5001 L 323.5053 113.4939 L 323.2115 113.4874 L 323.1043 113.4804 L 323.008 113.4741 L 323.0294 113.4751 L 322.7485 113.4688 L 322.7528 113.4689 L 322.2997 113.4628 L 322.3016 113.4628 L 321.6895 113.4568 L 320.9295 113.451 L 320.0339 113.4455 L 319.0152 113.4402 L 317.8857 113.4353 L 316.6578 113.4308 L 315.3438 113.4267 L 312.5063 113.4201 L 309.472 113.4158 L 306.3388 113.4143 Z M 333.9375 110.0431 L 339.9347 113.0486 L 333.932 116.0431 Z "/>
<path transform="matrix(1,0,0,-1,0,371)" d="M 306.3393 98.3611 L 309.4725 98.36261 L 312.5077 98.36687 L 315.3461 98.37349 L 316.6609 98.37756 L 317.8894 98.38208 L 319.0196 98.38699 L 320.0391 98.39224 L 320.9357 98.3978 L 321.6972 98.4036 L 322.3123 98.40961 L 322.7686 98.4158 L 323.0624 98.42233 L 323.1695 98.42933 L 323.2658 98.4356 L 323.2444 98.43467 L 323.5253 98.4409 L 323.521 98.44082 L 323.9741 98.44696 L 323.9723 98.44694 L 324.5854 98.45292 L 325.345 98.4587 L 326.2404 98.46424 L 327.259 98.46949 L 328.3884 98.47439 L 329.6163 98.4789 L 330.9304 98.48297 L 333.7679 98.48959 L 334.9352 98.49074 L 334.9342 99.49074 L 333.7656 99.48959 L 330.9273 99.48297 L 329.6127 99.4789 L 328.3841 99.47438 L 327.2538 99.46948 L 326.2342 99.46422 L 325.3374 99.45867 L 324.5756 99.45287 L 323.9616 99.44688 L 323.5053 99.4407 L 323.2115 99.43419 L 323.1043 99.4272 L 323.008 99.42091 L 323.0294 99.42185 L 322.7485 99.4156 L 322.7528 99.41568 L 322.2997 99.40954 L 322.3016 99.40956 L 321.6895 99.40357 L 320.9295 99.39778 L 320.0339 99.39223 L 319.0152 99.38698 L 317.8857 99.38207 L 316.6578 99.37756 L 315.3438 99.37348 L 312.5063 99.36687 L 309.472 99.36261 L 306.3388 99.3611 Z M 333.9375 95.98982 L 339.9347 98.99535 L 333.932 101.9898 Z "/>
<path transform="matrix(1,0,0,-1,0,371)" d="M 393.7719 106.0199 L 396.7366 106.0233 L 399.6094 106.033 L 402.2958 106.048 L 403.5405 106.0572 L 404.7034 106.0675 L 405.7733 106.0786 L 406.7386 106.0906 L 407.5886 106.1032 L 408.3106 106.1164 L 408.8943 106.13 L 409.3305 106.1442 L 409.627 106.16 L 409.7434 106.1782 L 409.8346 106.1925 L 409.7839 106.1872 L 410.0497 106.2013 L 410.0394 106.2009 L 410.4682 106.2148 L 410.4636 106.2147 L 411.0438 106.2283 L 411.0412 106.2282 L 411.7611 106.2414 L 411.7593 106.2413 L 412.6073 106.2539 L 413.5703 106.2658 L 414.6385 106.2769 L 415.7999 106.2872 L 417.0429 106.2964 L 420.5633 106.3128 L 420.5586 107.3128 L 417.0355 107.2964 L 415.7911 107.2871 L 414.628 107.2769 L 413.558 107.2657 L 412.5924 107.2538 L 411.7437 107.2412 L 411.0217 107.228 L 410.438 107.2144 L 410.0017 107.2002 L 409.7053 107.1844 L 409.5888 107.1662 L 409.4976 107.1519 L 409.5483 107.1572 L 409.2825 107.1431 L 409.2929 107.1435 L 408.8641 107.1296 L 408.8686 107.1297 L 408.2884 107.1161 L 408.291 107.1162 L 407.5712 107.103 L 407.5729 107.1031 L 406.7262 107.0905 L 405.7629 107.0786 L 404.6946 107.0674 L 403.5331 107.0572 L 402.2902 107.048 L 399.606 107.0329 L 396.7355 107.0233 L 393.7707 107.0199 Z M 419.5679 103.8105 L 425.5609 106.8245 L 419.5539 109.8105 Z "/>
<path transform="matrix(1,0,0,-1,0,371)" d="M 425.5611 60.15508 L 425.5611 68.08752 L 433.1674 75.69382 L 445.366 75.69382 L 445.366 52.54878 L 433.1674 52.54878 Z " fill="#4472c4" fill-rule="evenodd"/>
<path transform="matrix(0,-.00007874016,.00007874016,0,425.5611,318.45124)" stroke-width="19050" stroke-linecap="butt" stroke-miterlimit="8" stroke-linejoin="miter" fill="none" stroke="#2f528f" d="M 96600 0 L 197342 0 L 293942 96600.03 L 293942 251523 L 0 251523 L 0 96600.03 Z "/>
<path transform="matrix(1,0,0,-1,0,371)" d="M 223.5239 63.31023 L 420.562 63.61348 L 420.5604 64.61348 L 223.5224 64.31023 Z M 419.5656 61.11195 L 425.561 64.12118 L 419.5564 67.11194 Z "/>
<text xml:space="preserve" transform="matrix(.24 0 -0 .24 393.7984 646.32)" font-size="33.33333" font-family="Arial" font-weight="bold"><tspan y="-1545" x="0 26.043332 46.35333 57.29666 77.60666 97.91666">Output</tspan></text>
<text xml:space="preserve" transform="matrix(.24 0 -0 .24 290.4667 617.04)" font-size="33.33333" font-family="Arial" font-weight="bold"><tspan y="-1545" x="0 26.043332 46.35333 57.29666 77.60666 97.91666">Output</tspan></text>
<text xml:space="preserve" transform="matrix(.24 0 -0 .24 290.7341 660.48)" font-size="33.33333" font-family="Arial" font-weight="bold"><tspan y="-1545" x="0 26.043332 46.35333 57.29666 77.60666 97.91666">Output</tspan></text>
<text xml:space="preserve" transform="matrix(.24 0 -0 .24 234.2783 647.28)" font-size="33.33333" font-family="Arial" font-weight="bold"><tspan y="-1545" x="0 9.376666 29.686663 49.99666 70.306659">Input</tspan></text>
<text xml:space="preserve" transform="matrix(.24 0 -0 .24 334.7653 617.04)" font-size="33.33333" font-family="Arial" font-weight="bold"><tspan y="-1545" x="0 9.376666 29.686663 49.99666 70.306659">Input</tspan></text>
<text xml:space="preserve" transform="matrix(.24 0 -0 .24 335.2126 660.72)" font-size="33.33333" font-family="Arial" font-weight="bold"><tspan y="-1545" x="0 9.376666 29.686663 49.99666 70.306659">Input</tspan></text>
</g>
</svg>
