<svg width="717" height="494" xmlns="http://www.w3.org/2000/svg" xmlns:xlink="http://www.w3.org/1999/xlink" overflow="hidden"><defs><clipPath id="clip0"><rect x="0" y="0" width="717" height="494"/></clipPath></defs><g clip-path="url(#clip0)"><rect x="0" y="0" width="717" height="493.782" fill="#FFFFFF"/><rect x="0.999978" y="0.999536" width="715" height="491.783" stroke="#5B9BD5" stroke-width="3.99907" stroke-miterlimit="8" fill="#BDD7EE"/><text font-family="Calibri,Calibri_MSFontService,sans-serif" font-weight="700" font-size="24" transform="matrix(1 0 0 0.999558 625.606 28)">Package<tspan font-size="13" x="-583.052" y="83.0367">GraphInput</tspan><tspan font-size="13" x="-583.052" y="158.07">GraphInput</tspan><tspan font-size="13" x="-424.906" y="328.145">GraphInput</tspan><tspan font-size="13" x="-424.906" y="383.169">GraphInput</tspan><tspan font-size="13" x="-121.017" y="83.0367">GraphOutput</tspan><tspan font-size="13" x="-121.017" y="157.069">GraphOutput</tspan><tspan font-size="13" x="-23.6378" y="328.145">GraphOutput</tspan><tspan font-size="13" x="-23.6376" y="385.17">GraphOutput</tspan></text><path d="M129 68.9701C129 50.2004 144.223 34.9845 163.001 34.9845L444.999 34.9845C463.777 34.9845 479 50.2004 479 68.9701L479 204.909C479 223.678 463.777 238.894 444.999 238.894L163.001 238.894C144.223 238.894 129 223.678 129 204.909Z" stroke="#70AD47" stroke-width="3.99907" stroke-miterlimit="8" fill="#C5E0B4" fill-rule="evenodd"/><text font-family="Calibri,Calibri_MSFontService,sans-serif" font-weight="700" font-size="24" transform="matrix(1 0 0 0.999558 149.032 71)">Graph</text><path d="M140 102.324 140 112.581 129.63 122.946 113 122.946 113 122.946 113 91.9594 113 91.9594 129.63 91.9594Z" stroke="#2F528F" stroke-width="1.99865" stroke-miterlimit="8" fill="#4472C4" fill-rule="evenodd"/><path d="M140 179.29 140 188.547 129.63 198.912 113 198.912 113 198.912 113 168.925 113 168.925 129.63 168.925Z" stroke="#2F528F" stroke-width="1.99865" stroke-miterlimit="8" fill="#4472C4" fill-rule="evenodd"/><path d="M469 112.964 469 101.94 478.986 91.9593 495 91.9593 495 91.9593 495 122.946 495 122.946 478.986 122.946Z" stroke="#2F528F" stroke-width="1.99865" stroke-miterlimit="8" fill="#4472C4" fill-rule="evenodd"/><path d="M469 188.931 469 178.906 478.986 168.925 495 168.925 495 168.925 495 198.912 495 198.912 478.986 198.912Z" stroke="#2F528F" stroke-width="1.99865" stroke-miterlimit="8" fill="#4472C4" fill-rule="evenodd"/><path d="M195 102.788C195 99.0157 198.059 95.9576 201.834 95.9576L249.167 95.9576C252.941 95.9576 256 99.0157 256 102.788L256 130.109C256 133.881 252.941 136.94 249.167 136.94L201.834 136.94C198.059 136.94 195 133.881 195 130.109Z" stroke="#AE5A21" stroke-width="1.99954" stroke-miterlimit="8" fill="#ED7D31" fill-rule="evenodd"/><text fill="#FFFFFF" font-family="Calibri,Calibri_MSFontService,sans-serif" font-weight="700" font-size="16" transform="matrix(1 0 0 0.999558 207.552 122)">Node</text><path d="M190.5 107.952C190.5 104.916 192.739 102.455 195.5 102.455 198.261 102.455 200.5 104.916 200.5 107.952 200.5 110.988 198.261 113.45 195.5 113.45 192.739 113.45 190.5 110.988 190.5 107.952Z" stroke="#787878" stroke-width="1.33302" stroke-miterlimit="8" fill="#A5A5A5" fill-rule="evenodd"/><path d="M190.5 126.944C190.5 123.908 192.739 121.446 195.5 121.446 198.261 121.446 200.5 123.908 200.5 126.944 200.5 129.98 198.261 132.441 195.5 132.441 192.739 132.441 190.5 129.98 190.5 126.944Z" stroke="#787878" stroke-width="1.33302" stroke-miterlimit="8" fill="#A5A5A5" fill-rule="evenodd"/><path d="M251.5 116.948C251.5 113.912 253.739 111.451 256.5 111.451 259.261 111.451 261.5 113.912 261.5 116.948 261.5 119.985 259.261 122.446 256.5 122.446 253.739 122.446 251.5 119.985 251.5 116.948Z" stroke="#787878" stroke-width="1.33302" stroke-miterlimit="8" fill="#A5A5A5" fill-rule="evenodd"/><path d="M140.5 106.786 149.688 106.786 153.881 106.786 157.698 106.849 157.688 106.849 160.813 106.849 163.313 106.849 164.875 106.849 165.438 106.849 166.013 106.849 167.589 106.912 167.563 106.911 170 106.911 173.188 106.911 177 106.911 181.188 106.911 183.601 106.909 183.602 108.242 181.188 108.244 177 108.244 173.188 108.244 170 108.244 167.549 108.244 165.973 108.181 166 108.181 165.438 108.181 164.875 108.181 163.313 108.181 160.813 108.181 157.682 108.181 153.864 108.119 153.875 108.119 149.688 108.119 140.5 108.119ZM182.265 103.579 190.267 107.57 182.272 111.574Z"/><path d="M0.0880497-0.660373 4.86057-0.0240376 9.50034 1.9092 13.7897 4.79011 17.6867 8.55937 20.874 13.0216 23.4234 17.9928 25.0204 23.3588 25.5891 28.7929 26.1513 34.1655 26.1273 34.0448 27.6891 39.2925 27.6464 39.1846 30.0828 44.0574 30.0254 43.9631 33.2115 48.3361 33.1362 48.2496 36.947 51.9354 36.8553 51.8613 41.041 54.6725 40.8796 54.5933 43.4862 55.4593 43.0661 56.7238 40.3734 55.8292 36.0633 52.9344 32.1685 49.1673 28.9159 44.7029 26.4286 39.7284 24.8326 34.3657 24.2639 28.9316 23.7016 23.559 23.7257 23.6797 22.1639 18.432 22.2096 18.5459 19.7107 13.6731 19.7614 13.7563 16.6378 9.38325 16.7167 9.47489 12.9059 5.78902 12.9976 5.8632 8.81199 3.05195 8.9272 3.11386 4.42919 1.23969 4.59738 1.2851-0.0880497 0.660373ZM42.9391 51.8915 49.7447 57.686 41.0257 59.6538Z" transform="matrix(1.00044 0 0 -1 140.5 184.13)"/><path d="M345 83.7964C345 80.024 348.059 76.9659 351.833 76.9659L399.167 76.9659C402.941 76.9659 406 80.024 406 83.7964L406 111.117C406 114.89 402.941 117.948 399.167 117.948L351.833 117.948C348.059 117.948 345 114.89 345 111.117Z" stroke="#AE5A21" stroke-width="1.99954" stroke-miterlimit="8" fill="#ED7D31" fill-rule="evenodd"/><text fill="#FFFFFF" font-family="Calibri,Calibri_MSFontService,sans-serif" font-weight="700" font-size="16" transform="matrix(1 0 0 0.999558 357.414 103)">Node</text><path d="M400.5 88.9607C400.5 85.9244 402.962 83.4631 406 83.4631 409.038 83.4631 411.5 85.9244 411.5 88.9607 411.5 91.9969 409.038 94.4583 406 94.4583 402.962 94.4583 400.5 91.9969 400.5 88.9607Z" stroke="#787878" stroke-width="1.33302" stroke-miterlimit="8" fill="#A5A5A5" fill-rule="evenodd"/><path d="M400.5 107.952C400.5 104.916 402.962 102.455 406 102.455 409.038 102.455 411.5 104.916 411.5 107.952 411.5 110.988 409.038 113.45 406 113.45 402.962 113.45 400.5 110.988 400.5 107.952Z" stroke="#787878" stroke-width="1.33302" stroke-miterlimit="8" fill="#A5A5A5" fill-rule="evenodd"/><path d="M339.5 97.4569C339.5 94.6967 341.962 92.4591 345 92.4591 348.038 92.4591 350.5 94.6967 350.5 97.4569 350.5 100.217 348.038 102.455 345 102.455 341.962 102.455 339.5 100.217 339.5 97.4569Z" stroke="#787878" stroke-width="1.33302" stroke-miterlimit="8" fill="#A5A5A5" fill-rule="evenodd"/><path d="M0.0227634-0.665828 7.34712-0.415423 14.4454 0.149925 21.0471 1.15591 27.024 2.41419 32.0844 3.86906 35.9771 5.52825 37.4955 6.45248 38.6703 7.41993 39.4074 8.52558 39.6858 9.50019 39.9357 10.3748 39.8494 10.1883 40.4742 11.1254 40.3434 10.9806 41.4054 11.8553 41.3283 11.8004 42.7651 12.6751 42.68 12.6313 46.4908 14.2556 46.4136 14.2281 51.4114 15.665 51.3646 15.6534 57.2995 16.9028 57.2617 16.896 63.8837 17.8955 63.8318 17.8898 71.4506 18.4339 71.3557 19.763 63.7107 19.217 57.0438 18.2106 51.0665 16.9522 46.0061 15.4974 42.1134 13.8382 40.595 12.914 39.4202 11.9465 38.6831 10.8409 38.4046 9.86624 38.1548 8.99163 38.241 9.17815 37.6163 8.24107 37.7471 8.38579 36.6851 7.51118 36.7622 7.56599 35.3253 6.69137 35.4105 6.73516 31.5997 5.11088 31.6768 5.13829 26.679 3.70143 26.7259 3.71307 20.791 2.46363 20.8279 2.47031 14.2683 1.47076 14.3158 1.47625 7.25637 0.914004 7.2865 0.915718-0.0227634 0.665828ZM70.2016 15.0599 78.0618 19.3155 69.9412 23.0502Z" transform="matrix(1.00044 0 0 -1 261.5 116.772)"/><path d="M0-0.666217 10.6203-0.666217 15.4978-0.666217 19.9381-0.603679 19.9287-0.603745 23.6146-0.603745 26.4258-0.603745 28.3-0.603745 28.9247-0.603745 29.5494-0.603745 31.4236-0.603745 34.2349-0.603745 37.9207-0.603745 42.2938-0.603745 47.1666-0.603745 47.1643-0.603741 51.0895-0.6178 51.0943 0.714626 47.1678 0.728689 42.2938 0.728689 37.9207 0.728689 34.2349 0.728689 31.4236 0.728689 29.5494 0.728689 28.9247 0.728689 28.3 0.728689 26.4258 0.728689 23.6146 0.728689 19.924 0.728689 15.4838 0.666151 15.4931 0.666217 10.6203 0.666217 0 0.666217ZM49.7451-3.94409 57.754 0.0245504 49.7738 4.05046Z" transform="matrix(1.00044 0 0 -1 411.5 107.477)"/><path d="M261.593 115.789 265.248 116.301 268.769 117.866 272.125 120.253 275.082 123.337 277.517 126.924 279.439 130.957 280.657 135.316 281.101 139.683 281.538 143.994 281.517 143.882 282.704 148.13 282.662 148.019 284.537 151.892 284.492 151.813 286.867 155.374 286.789 155.278 289.664 158.214 289.527 158.106 293.312 160.344 292.634 161.491 288.773 159.209 285.792 156.165 283.357 152.514 281.437 148.546 280.218 144.185 279.774 139.818 279.337 135.507 279.358 135.619 278.171 131.371 278.211 131.478 276.336 127.543 276.386 127.63 274.011 124.132 274.081 124.219 271.206 121.22 271.301 121.302 268.051 118.99 268.167 119.056 264.792 117.557 264.97 117.608 261.407 117.108ZM292.941 156.704 299.312 162.976 290.469 164.307Z"/><path d="M140.5 183.752 155.375 183.752 169.75 183.752 183.25 183.752 189.504 183.752 195.32 183.815 195.313 183.815 200.625 183.815 205.5 183.815 209.75 183.815 213.375 183.815 216.25 183.815 218.375 183.815 219.75 183.815 220.188 183.815 220.625 183.815 222 183.815 224.132 183.815 227.077 183.877 227.063 183.877 230.625 183.877 234.875 183.877 239.75 183.877 245.125 183.877 250.938 183.877 257.188 183.877 270.625 183.877 285 183.877 293.178 183.865 293.18 185.198 285 185.21 270.625 185.21 257.188 185.21 250.938 185.21 245.125 185.21 239.75 185.21 234.875 185.21 230.625 185.21 227.055 185.21 224.111 185.147 224.125 185.147 222 185.147 220.625 185.147 220.188 185.147 219.75 185.147 218.375 185.147 216.25 185.147 213.375 185.147 209.75 185.147 205.5 185.147 200.625 185.147 195.309 185.147 189.493 185.085 189.5 185.085 183.25 185.085 169.75 185.085 155.375 185.085 140.5 185.085ZM291.84 180.536 299.844 184.521 291.852 188.531Z"/><path d="M398.525 161.762 405.173 162.013 411.595 162.705 417.579 163.776 423.009 165.164 427.58 166.814 431.193 168.684 433.514 170.739 434.257 171.927 434.468 173.051 434.655 174.05 434.565 173.82 435.19 174.819 435.06 174.668 437.31 176.604 437.186 176.52 440.623 178.332 440.536 178.293 445.099 179.918 445.042 179.9 450.355 181.275 450.304 181.264 456.304 182.326 456.25 182.318 462.514 182.911 462.388 184.237 456.098 183.642 450.046 182.571 444.679 181.183 440.044 179.532 436.497 177.663 434.113 175.611 433.368 174.419 433.157 173.296 432.97 172.297 433.06 172.527 432.435 171.527 432.558 171.673 430.371 169.736 430.506 169.829 427.006 168.018 427.086 168.053 422.586 166.428 422.647 166.447 417.272 165.073 417.32 165.083 411.383 164.021 411.429 164.028 405.054 163.34 405.1 163.344 398.475 163.094ZM461.301 179.52 469.109 183.877 460.937 187.506Z"/><path d="M0 0 0.000104916 60.6658" stroke="#70AD47" stroke-width="3.9973" stroke-miterlimit="8" fill="none" fill-rule="evenodd" transform="matrix(1.00044 0 0 -1 349 258.578)"/><text font-family="Calibri,Calibri_MSFontService,sans-serif" font-weight="700" font-size="11" transform="matrix(1 0 0 0.999558 165.958 97)">Input<tspan font-size="11" x="10.7869" y="50.0221">Input</tspan><tspan font-size="11" x="120.389" y="47.0208">Input</tspan><tspan font-size="11" x="108.135" y="102.045">Input</tspan><tspan font-size="11" x="150.7" y="-9.00398">Input</tspan><tspan font-size="11" x="94.0156" y="9.00398">Output</tspan><tspan font-size="11" x="235.536" y="90.0398">Output</tspan><tspan font-size="11" x="249.182" y="-7.0031">Output</tspan><tspan font-size="11" x="243.018" y="26.0115">Output</tspan></text><path d="M305 156.264C305 151.664 308.731 147.935 313.333 147.935L384.666 147.935C389.269 147.935 393 151.664 393 156.264L393 189.583C393 194.183 389.269 197.913 384.666 197.913L313.333 197.913C308.731 197.913 305 194.183 305 189.583Z" stroke="#507E32" stroke-width="1.99954" stroke-miterlimit="8" fill="#70AD47" fill-rule="evenodd"/><text fill="#FFFFFF" font-family="Calibri,Calibri_MSFontService,sans-serif" font-weight="700" font-size="16" transform="matrix(1 0 0 0.999558 317.366 178)">Subgraph</text><path d="M299.5 162.928C299.5 159.892 301.962 157.43 305 157.43 308.038 157.43 310.5 159.892 310.5 162.928 310.5 165.964 308.038 168.426 305 168.426 301.962 168.426 299.5 165.964 299.5 162.928Z" stroke="#787878" stroke-width="1.33302" stroke-miterlimit="8" fill="#A5A5A5" fill-rule="evenodd"/><path d="M299.5 184.418C299.5 181.658 301.962 179.421 305 179.421 308.038 179.421 310.5 181.658 310.5 184.418 310.5 187.179 308.038 189.416 305 189.416 301.962 189.416 299.5 187.179 299.5 184.418Z" stroke="#787878" stroke-width="1.33302" stroke-miterlimit="8" fill="#A5A5A5" fill-rule="evenodd"/><path d="M388.5 162.928C388.5 159.892 390.739 157.43 393.5 157.43 396.261 157.43 398.5 159.892 398.5 162.928 398.5 165.964 396.261 168.426 393.5 168.426 390.739 168.426 388.5 165.964 388.5 162.928Z" stroke="#787878" stroke-width="1.33302" stroke-miterlimit="8" fill="#A5A5A5" fill-rule="evenodd"/><path d="M388.5 183.919C388.5 180.882 390.739 178.421 393.5 178.421 396.261 178.421 398.5 180.882 398.5 183.919 398.5 186.955 396.261 189.416 393.5 189.416 390.739 189.416 388.5 186.955 388.5 183.919Z" stroke="#787878" stroke-width="1.33302" stroke-miterlimit="8" fill="#A5A5A5" fill-rule="evenodd"/><text font-family="Calibri,Calibri_MSFontService,sans-serif" font-weight="700" font-size="11" transform="matrix(1 0 0 0.999558 399.247 156)">Output</text><path d="M288 304.865C288 286.096 301.655 270.88 318.5 270.88L318.5 270.88C335.344 270.88 348.999 255.665 348.999 236.895 348.999 255.665 362.654 270.88 379.499 270.88L546.5 270.88C563.345 270.88 577 286.096 577 304.865Z" fill="#70AD47" fill-rule="evenodd"/><path d="M288 304.865C288 286.096 301.655 270.88 318.5 270.88L318.5 270.88C335.344 270.88 348.999 255.665 348.999 236.895 348.999 255.665 362.654 270.88 379.499 270.88L546.5 270.88C563.345 270.88 577 286.096 577 304.865" stroke="#70AD47" stroke-width="3.9973" stroke-miterlimit="8" fill="none" fill-rule="evenodd"/><path d="M288 302.034C288 284.828 301.954 270.88 319.167 270.88L545.833 270.88C563.046 270.88 577 284.828 577 302.034L577 426.644C577 443.85 563.046 457.798 545.833 457.798L319.167 457.798C301.954 457.798 288 443.85 288 426.644Z" stroke="#70AD47" stroke-width="3.99907" stroke-miterlimit="8" fill="#C5E0B4" fill-rule="evenodd"/><text font-family="Calibri,Calibri_MSFontService,sans-serif" font-weight="700" font-size="24" transform="matrix(1 0 0 0.999558 306.316 307)">Graph</text><path d="M298 346.832 298 357.856 288.014 367.837 272 367.837 272 367.837 272 336.851 272 336.851 288.014 336.851Z" stroke="#2F528F" stroke-width="1.99865" stroke-miterlimit="8" fill="#4472C4" fill-rule="evenodd"/><path d="M298 403.807 298 414.831 288.014 424.812 272 424.812 272 424.812 272 393.826 272 393.826 288.014 393.826Z" stroke="#2F528F" stroke-width="1.99865" stroke-miterlimit="8" fill="#4472C4" fill-rule="evenodd"/><path d="M567 357.472 567 347.216 577.37 336.851 594 336.851 594 336.851 594 367.837 594 367.837 577.37 367.837Z" stroke="#2F528F" stroke-width="1.99865" stroke-miterlimit="8" fill="#4472C4" fill-rule="evenodd"/><path d="M459 338.684C459 334.911 462.059 331.853 465.833 331.853L513.167 331.853C516.94 331.853 520 334.911 520 338.684L520 366.005C520 369.777 516.94 372.835 513.167 372.835L465.833 372.835C462.059 372.835 459 369.777 459 366.005Z" stroke="#AE5A21" stroke-width="1.99954" stroke-miterlimit="8" fill="#ED7D31" fill-rule="evenodd"/><text fill="#FFFFFF" font-family="Calibri,Calibri_MSFontService,sans-serif" font-weight="700" font-size="16" transform="matrix(1 0 0 0.999558 471.111 358)">Node</text><path d="M453.5 343.848C453.5 340.812 455.962 338.35 459 338.35 462.038 338.35 464.5 340.812 464.5 343.848 464.5 346.884 462.038 349.345 459 349.345 455.962 349.345 453.5 346.884 453.5 343.848Z" stroke="#787878" stroke-width="1.33302" stroke-miterlimit="8" fill="#A5A5A5" fill-rule="evenodd"/><path d="M453.5 362.84C453.5 359.803 455.962 357.342 459 357.342 462.038 357.342 464.5 359.803 464.5 362.84 464.5 365.876 462.038 368.337 459 368.337 455.962 368.337 453.5 365.876 453.5 362.84Z" stroke="#787878" stroke-width="1.33302" stroke-miterlimit="8" fill="#A5A5A5" fill-rule="evenodd"/><path d="M514.5 352.844C514.5 349.808 516.962 347.346 520 347.346 523.038 347.346 525.5 349.808 525.5 352.844 525.5 355.88 523.038 358.341 520 358.341 516.962 358.341 514.5 355.88 514.5 352.844Z" stroke="#787878" stroke-width="1.33302" stroke-miterlimit="8" fill="#A5A5A5" fill-rule="evenodd"/><path d="M342 338.684C342 334.911 345.059 331.853 348.833 331.853L396.166 331.853C399.941 331.853 403 334.911 403 338.684L403 366.005C403 369.777 399.941 372.835 396.166 372.835L348.833 372.835C345.059 372.835 342 369.777 342 366.005Z" stroke="#AE5A21" stroke-width="1.99954" stroke-miterlimit="8" fill="#ED7D31" fill-rule="evenodd"/><text fill="#FFFFFF" font-family="Calibri,Calibri_MSFontService,sans-serif" font-weight="700" font-size="16" transform="matrix(1 0 0 0.999558 354.562 358)">Node</text><path d="M398.5 344.348C398.5 341.587 400.739 339.35 403.5 339.35 406.261 339.35 408.5 341.587 408.5 344.348 408.5 347.108 406.261 349.345 403.5 349.345 400.739 349.345 398.5 347.108 398.5 344.348Z" stroke="#787878" stroke-width="1.33302" stroke-miterlimit="8" fill="#A5A5A5" fill-rule="evenodd"/><path d="M398.5 362.84C398.5 359.803 400.739 357.342 403.5 357.342 406.261 357.342 408.5 359.803 408.5 362.84 408.5 365.876 406.261 368.337 403.5 368.337 400.739 368.337 398.5 365.876 398.5 362.84Z" stroke="#787878" stroke-width="1.33302" stroke-miterlimit="8" fill="#A5A5A5" fill-rule="evenodd"/><path d="M337.5 352.844C337.5 349.808 339.739 347.346 342.5 347.346 345.261 347.346 347.5 349.808 347.5 352.844 347.5 355.88 345.261 358.341 342.5 358.341 339.739 358.341 337.5 355.88 337.5 352.844Z" stroke="#787878" stroke-width="1.33302" stroke-miterlimit="8" fill="#A5A5A5" fill-rule="evenodd"/><path d="M0.00899585-0.666156 31.9603-0.234682 31.9423 1.09763-0.00899585 0.666156ZM30.673-3.58346 38.6129 0.521433 30.565 4.41042Z" transform="matrix(1.00044 0 0 -1 298.5 352.866)"/><path d="M0-0.666217 8.24635-0.666217 12.0633-0.666217 15.443-0.603631 15.4307-0.603745 18.3044-0.603745 20.5054-0.603745 21.9567-0.540644 21.9278-0.541272 22.4276-0.541272 22.9418-0.541272 24.3932-0.478171 24.3642-0.4788 26.5508-0.4788 29.4245-0.4788 32.798-0.4788 36.6088-0.4788 38.1012-0.480362 38.1026 0.852071 36.6088 0.853634 32.798 0.853634 29.4245 0.853634 26.5508 0.853634 24.3497 0.853634 22.8984 0.790533 22.9274 0.791162 22.4276 0.791162 21.9133 0.791162 20.462 0.728061 20.4909 0.728689 18.3044 0.728689 15.4245 0.728689 12.0448 0.666103 12.0572 0.666217 8.24635 0.666217 0 0.666217ZM36.7652-3.81005 44.764 0.178882 36.7736 4.18455Z" transform="matrix(1.00044 0 0 -1 408.5 344.527)"/><path d="M0-0.666217 8.24635-0.666217 12.0633-0.666217 15.443-0.603631 15.4307-0.603745 18.3044-0.603745 20.5054-0.603745 21.9567-0.540644 21.9278-0.541272 22.4276-0.541272 22.9418-0.541272 24.3932-0.478171 24.3642-0.4788 26.5508-0.4788 29.4245-0.4788 32.798-0.4788 36.6088-0.4788 38.1012-0.480362 38.1026 0.852071 36.6088 0.853634 32.798 0.853634 29.4245 0.853634 26.5508 0.853634 24.3497 0.853634 22.8984 0.790533 22.9274 0.791162 22.4276 0.791162 21.9133 0.791162 20.462 0.728061 20.4909 0.728689 18.3044 0.728689 15.4245 0.728689 12.0448 0.666103 12.0572 0.666217 8.24635 0.666217 0 0.666217ZM36.7652-3.81005 44.764 0.178882 36.7736 4.18455Z" transform="matrix(1.00044 0 0 -1 408.5 363.518)"/><path d="M0-0.666217 7.81489-0.666217 11.3817-0.603642 11.37-0.603745 14.5636-0.603745 17.3225-0.541043 19.3866-0.478494 19.3664-0.4788 20.7198-0.4788 21.2608-0.411183 21.1781-0.416328 21.6938-0.416328 23.0215-0.353101 22.9898-0.353855 25.1216-0.353855 27.8157-0.291203 27.8002-0.291383 30.9901-0.291383 35.703-0.237643 35.6878 1.0947 30.9787 1.04101 30.9863 1.04105 27.7925 1.04105 25.0984 0.978399 25.1139 0.978579 22.974 0.978579 21.6462 0.915353 21.6779 0.916107 21.1367 0.916107 20.5957 0.84849 20.6784 0.853634 19.3563 0.853634 17.2847 0.790856 17.2897 0.79099 14.5409 0.728518 14.5561 0.728689 11.3641 0.728689 7.79736 0.666115 7.80905 0.666217 0 0.666217ZM34.3494-3.56423 42.3576 0.40592 34.3766 4.43033Z" transform="matrix(1.00044 0 0 -1 525.5 352.75)"/><path d="M567 414.447 567 404.191 577.37 393.826 594 393.826 594 393.826 594 424.812 594 424.812 577.37 424.812Z" stroke="#2F528F" stroke-width="1.99865" stroke-miterlimit="8" fill="#4472C4" fill-rule="evenodd"/><path d="M0.00102534-0.666216 262.541-0.262156 262.539 1.07028-0.00102534 0.666216ZM261.214-3.59529 269.202 0.414314 261.201 4.39931Z" transform="matrix(1.00044 0 0 -1 298.5 409.733)"/><text font-family="Calibri,Calibri_MSFontService,sans-serif" font-weight="700" font-size="11" transform="matrix(1 0 0 0.999558 524.943 366)">Output<tspan font-size="11" x="-137.744" y="-39.0172">Output</tspan><tspan font-size="11" x="-137.387" y="19.0084">Output</tspan><tspan font-size="11" x="-212.644" y="1.00044">Input</tspan><tspan font-size="11" x="-78.6926" y="-39.0172">Input</tspan><tspan font-size="11" x="-78.0963" y="19.0084">Input</tspan></text></g></svg>